<svg width="20" height="20" viewBox="0 0 20 20" fill="none" xmlns="http://www.w3.org/2000/svg">
<g clip-path="url(#clip0_4_2915)">
<path d="M8 13C12.1421 13 15.5 10.2018 15.5 6.75C15.5 3.29822 12.1421 0.5 8 0.5C3.85786 0.5 0.5 3.29822 0.5 6.75C0.5 8.45341 1.31774 9.99766 2.64393 11.125C3.24377 11.6349 3.94764 12.0595 4.72691 12.375L4.37187 15.1667C4.32833 15.5091 4.72695 15.7275 4.9921 15.5066L8 13Z" stroke="#413C3C" stroke-linejoin="round"/>
<path d="M15.3522 7.7428C17.7595 8.39321 19.5 10.2772 19.5 12.5C19.5 13.8627 18.8458 15.0981 17.7849 16C17.305 16.4079 16.7419 16.7476 16.1185 17L16.3781 19.0417C16.4217 19.3841 16.023 19.6026 15.7579 19.3816L13.5 17.5C10.4666 17.5 7.95891 15.6241 7.55641 13.1885" stroke="#413C3C" stroke-linejoin="round"/>
<path d="M12 7H11M7.5 7H8.5M5 7H4" stroke="#413C3C" stroke-linecap="round"/>
</g>
<defs>
<clipPath id="clip0_4_2915">
<rect width="20" height="20" fill="white"/>
</clipPath>
</defs>
</svg>
