<svg width="16" height="16" viewBox="0 0 16 16" fill="none" xmlns="http://www.w3.org/2000/svg">
<path d="M9.59838 3.35587L10.0352 2.68317C10.514 1.94597 11.4997 1.73645 12.2369 2.21519L14.2391 3.51544C14.9763 3.99418 15.1858 4.97989 14.7071 5.71709L11.2397 11.0563C10.761 11.7935 9.77528 12.003 9.03808 11.5243L7.03587 10.224C6.29868 9.7453 6.08916 8.75959 6.5679 8.0224L7.00476 7.3497M9.00009 8.66054L9.43694 7.98784C9.91568 7.25065 9.70616 6.26494 8.96897 5.7862L6.96676 4.48595C6.22957 4.00721 5.24386 4.21673 4.76512 4.95392L1.29778 10.2932C0.819041 11.0303 1.02856 12.0161 1.76575 12.4948L3.76797 13.795C4.50516 14.2738 5.49087 14.0643 5.96961 13.3271L6.40646 12.6544" stroke="#81BED2" stroke-width="2" stroke-linecap="round"/>
</svg>
