<svg width="20" height="20" viewBox="0 0 20 20" fill="none" xmlns="http://www.w3.org/2000/svg">
<g clip-path="url(#clip0_4_2899)">
<path d="M4.5 18.0455L1.84174 19.0121C1.18956 19.2493 0.5 18.7663 0.5 18.0723V1.9277C0.5 1.23374 1.18956 0.750749 1.84174 0.987907L10.8417 4.26063C11.2369 4.40434 11.5 4.77992 11.5 5.20043V14.7996C11.5 15.2201 11.2369 15.5957 10.8417 15.7394L9 16.4091" stroke="#413C3C" stroke-linecap="round"/>
<path d="M19.5 14.5C19.5 15.0523 19.0523 15.5 18.5 15.5H12.5C11.9477 15.5 11.5 15.0523 11.5 14.5V5.5C11.5 4.94771 11.9477 4.5 12.5 4.5H18.5C19.0523 4.5 19.5 4.94772 19.5 5.5V14.5Z" stroke="#413C3C"/>
<path d="M9 16.4006V9.30483C9 8.25026 8.26755 7.33718 7.23809 7.10841V7.10841C5.83294 6.79615 4.5 7.86539 4.5 9.30483V17.9999" stroke="#413C3C"/>
</g>
<defs>
<clipPath id="clip0_4_2899">
<rect width="20" height="20" fill="white"/>
</clipPath>
</defs>
</svg>
