<svg width="20" height="20" viewBox="0 0 20 20" fill="none" xmlns="http://www.w3.org/2000/svg">
<path d="M10 16V10" stroke="#81BED2" stroke-linecap="round"/>
<path d="M0.5 16V17.5C0.5 18.6046 1.39543 19.5 2.5 19.5H17.5C18.6046 19.5 19.5 18.6046 19.5 17.5V16" stroke="#81BED2" stroke-linecap="round"/>
<path d="M13 13.5L10 16.5L7 13.5" stroke="#81BED2" stroke-linecap="round" stroke-linejoin="round"/>
<path d="M3.16036 7.49799C3.07179 7.49799 3 7.42619 3 7.33763V2.66816C3 2.29915 3.29914 2 3.66816 2H5.02356C5.07702 2 5.13174 2.00255 5.18774 2.00764C5.24374 2.01018 5.3061 2.01782 5.37482 2.03054C5.63954 2.07127 5.86863 2.16799 6.06207 2.32072C6.25807 2.47089 6.40824 2.66179 6.5126 2.89342C6.61951 3.12251 6.67296 3.3745 6.67296 3.6494C6.67296 3.9243 6.61951 4.17756 6.5126 4.40919C6.40824 4.63827 6.25807 4.82917 6.06207 4.98189C5.86863 5.13207 5.63954 5.22752 5.37482 5.26825C5.3061 5.27843 5.24374 5.28607 5.18774 5.29116C5.13174 5.29625 5.07702 5.29879 5.02356 5.29879H3.98887C3.61986 5.29879 3.32072 5.59794 3.32072 5.96695V7.33763C3.32072 7.42619 3.24892 7.49799 3.16036 7.49799ZM3.32072 4.30992C3.32072 4.67893 3.61986 4.97808 3.98887 4.97808H5.02356C5.06684 4.97808 5.11774 4.97553 5.17629 4.97044C5.23738 4.96535 5.29846 4.95771 5.35955 4.94753C5.57082 4.90681 5.74772 4.82281 5.89026 4.69554C6.03535 4.56827 6.1448 4.41428 6.21861 4.23356C6.29243 4.05029 6.32934 3.85557 6.32934 3.6494C6.32934 3.44322 6.29243 3.24977 6.21861 3.06905C6.1448 2.88579 6.03535 2.73052 5.89026 2.60325C5.74772 2.47598 5.57082 2.39199 5.35955 2.35126C5.29846 2.33853 5.23738 2.3309 5.17629 2.32835C5.11774 2.32326 5.06684 2.32072 5.02356 2.32072H3.98887C3.61986 2.32072 3.32072 2.61986 3.32072 2.98887V4.30992Z" fill="#81BED2"/>
<path d="M8.86875 7.49799C8.49974 7.49799 8.2006 7.19884 8.2006 6.82983V2.66816C8.2006 2.29915 8.49974 2 8.86875 2H9.81181C9.87799 2 9.98362 2.00127 10.1287 2.00382C10.2738 2.00636 10.4125 2.01782 10.5449 2.03818C10.9496 2.09672 11.2843 2.25199 11.549 2.50398C11.8163 2.75597 12.0148 3.07669 12.1446 3.46613C12.2745 3.85303 12.3394 4.28065 12.3394 4.74899C12.3394 5.21989 12.2745 5.65005 12.1446 6.03949C12.0148 6.42639 11.8163 6.74583 11.549 6.99782C11.2843 7.24727 10.9496 7.40126 10.5449 7.45981C10.4151 7.47762 10.2751 7.48908 10.1249 7.49417C9.97726 7.49671 9.8729 7.49799 9.81181 7.49799H8.86875ZM8.54422 6.50911C8.54422 6.87813 8.84337 7.17727 9.21238 7.17727H9.81181C9.93399 7.17727 10.0562 7.17345 10.1783 7.16582C10.3031 7.15818 10.4074 7.14673 10.4914 7.13145C10.8529 7.07037 11.143 6.93164 11.3619 6.71529C11.5834 6.49639 11.7437 6.21894 11.843 5.88295C11.9448 5.54442 11.9957 5.16643 11.9957 4.74899C11.9957 4.33155 11.9448 3.95484 11.843 3.61885C11.7437 3.28032 11.5834 3.00287 11.3619 2.78652C11.143 2.56762 10.8529 2.42762 10.4914 2.36653C10.4074 2.35126 10.3018 2.33981 10.1745 2.33217C10.0473 2.32453 9.92635 2.32072 9.81181 2.32072H9.21238C8.84337 2.32072 8.54422 2.61986 8.54422 2.98887V6.50911Z" fill="#81BED2"/>
<path d="M14.1059 7.49799C14.0174 7.49799 13.9456 7.42619 13.9456 7.33763V2.66816C13.9456 2.29915 14.2447 2 14.6137 2H16.8396C16.9282 2 17 2.07179 17 2.16036C17 2.24892 16.9282 2.32072 16.8396 2.32072H14.9344C14.5654 2.32072 14.2663 2.61986 14.2663 2.98887V3.92048C14.2663 4.28949 14.5654 4.58864 14.9344 4.58864H16.3815C16.47 4.58864 16.5418 4.66043 16.5418 4.74899C16.5418 4.83756 16.47 4.90935 16.3815 4.90935H14.9344C14.5654 4.90935 14.2663 5.2085 14.2663 5.57751V7.33763C14.2663 7.42619 14.1945 7.49799 14.1059 7.49799Z" fill="#81BED2"/>
<path d="M3.16036 7.49799C3.07179 7.49799 3 7.42619 3 7.33763V2.66816C3 2.29915 3.29914 2 3.66816 2H5.02356C5.07702 2 5.13174 2.00255 5.18774 2.00764C5.24374 2.01018 5.3061 2.01782 5.37482 2.03054C5.63954 2.07127 5.86863 2.16799 6.06207 2.32072C6.25807 2.47089 6.40824 2.66179 6.5126 2.89342C6.61951 3.12251 6.67296 3.3745 6.67296 3.6494C6.67296 3.9243 6.61951 4.17756 6.5126 4.40919C6.40824 4.63827 6.25807 4.82917 6.06207 4.98189C5.86863 5.13207 5.63954 5.22752 5.37482 5.26825C5.3061 5.27843 5.24374 5.28607 5.18774 5.29116C5.13174 5.29625 5.07702 5.29879 5.02356 5.29879H3.98887C3.61986 5.29879 3.32072 5.59794 3.32072 5.96695V7.33763C3.32072 7.42619 3.24892 7.49799 3.16036 7.49799ZM3.32072 4.30992C3.32072 4.67893 3.61986 4.97808 3.98887 4.97808H5.02356C5.06684 4.97808 5.11774 4.97553 5.17629 4.97044C5.23738 4.96535 5.29846 4.95771 5.35955 4.94753C5.57082 4.90681 5.74772 4.82281 5.89026 4.69554C6.03535 4.56827 6.1448 4.41428 6.21861 4.23356C6.29243 4.05029 6.32934 3.85557 6.32934 3.6494C6.32934 3.44322 6.29243 3.24977 6.21861 3.06905C6.1448 2.88579 6.03535 2.73052 5.89026 2.60325C5.74772 2.47598 5.57082 2.39199 5.35955 2.35126C5.29846 2.33853 5.23738 2.3309 5.17629 2.32835C5.11774 2.32326 5.06684 2.32072 5.02356 2.32072H3.98887C3.61986 2.32072 3.32072 2.61986 3.32072 2.98887V4.30992Z" stroke="#81BED2" stroke-width="0.7" stroke-linejoin="round"/>
<path d="M8.86875 7.49799C8.49974 7.49799 8.2006 7.19884 8.2006 6.82983V2.66816C8.2006 2.29915 8.49974 2 8.86875 2H9.81181C9.87799 2 9.98362 2.00127 10.1287 2.00382C10.2738 2.00636 10.4125 2.01782 10.5449 2.03818C10.9496 2.09672 11.2843 2.25199 11.549 2.50398C11.8163 2.75597 12.0148 3.07669 12.1446 3.46613C12.2745 3.85303 12.3394 4.28065 12.3394 4.74899C12.3394 5.21989 12.2745 5.65005 12.1446 6.03949C12.0148 6.42639 11.8163 6.74583 11.549 6.99782C11.2843 7.24727 10.9496 7.40126 10.5449 7.45981C10.4151 7.47762 10.2751 7.48908 10.1249 7.49417C9.97726 7.49671 9.8729 7.49799 9.81181 7.49799H8.86875ZM8.54422 6.50911C8.54422 6.87813 8.84337 7.17727 9.21238 7.17727H9.81181C9.93399 7.17727 10.0562 7.17345 10.1783 7.16582C10.3031 7.15818 10.4074 7.14673 10.4914 7.13145C10.8529 7.07037 11.143 6.93164 11.3619 6.71529C11.5834 6.49639 11.7437 6.21894 11.843 5.88295C11.9448 5.54442 11.9957 5.16643 11.9957 4.74899C11.9957 4.33155 11.9448 3.95484 11.843 3.61885C11.7437 3.28032 11.5834 3.00287 11.3619 2.78652C11.143 2.56762 10.8529 2.42762 10.4914 2.36653C10.4074 2.35126 10.3018 2.33981 10.1745 2.33217C10.0473 2.32453 9.92635 2.32072 9.81181 2.32072H9.21238C8.84337 2.32072 8.54422 2.61986 8.54422 2.98887V6.50911Z" stroke="#81BED2" stroke-width="0.7" stroke-linejoin="round"/>
<path d="M14.1059 7.49799C14.0174 7.49799 13.9456 7.42619 13.9456 7.33763V2.66816C13.9456 2.29915 14.2447 2 14.6137 2H16.8396C16.9282 2 17 2.07179 17 2.16036C17 2.24892 16.9282 2.32072 16.8396 2.32072H14.9344C14.5654 2.32072 14.2663 2.61986 14.2663 2.98887V3.92048C14.2663 4.28949 14.5654 4.58864 14.9344 4.58864H16.3815C16.47 4.58864 16.5418 4.66043 16.5418 4.74899C16.5418 4.83756 16.47 4.90935 16.3815 4.90935H14.9344C14.5654 4.90935 14.2663 5.2085 14.2663 5.57751V7.33763C14.2663 7.42619 14.1945 7.49799 14.1059 7.49799Z" stroke="#81BED2" stroke-width="0.7" stroke-linejoin="round"/>
</svg>
