<svg width="20" height="20" viewBox="0 0 20 20" fill="none" xmlns="http://www.w3.org/2000/svg">
<path d="M1.15391 10.6887C0.787239 10.3028 0.78724 9.69719 1.15391 9.31123L2.7496 7.63155C6.69211 3.48154 13.3071 3.48154 17.2496 7.63155L18.8453 9.31123C19.212 9.6972 19.212 10.3028 18.8453 10.6887L17.2496 12.3684C13.3071 16.5184 6.69211 16.5184 2.7496 12.3684L1.15391 10.6887Z" stroke="#81BED2"/>
<path d="M13.4996 9.99998C13.4996 11.933 11.9326 13.5 9.99959 13.5C8.0666 13.5 6.4996 11.933 6.4996 9.99998C6.4996 8.06698 8.0666 6.49998 9.99959 6.49998C11.9326 6.49998 13.4996 8.06698 13.4996 9.99998Z" stroke="#81BED2"/>
</svg>
