<svg width="20" height="20" viewBox="0 0 20 20" fill="none" xmlns="http://www.w3.org/2000/svg">
<g clip-path="url(#clip0_4_2905)">
<path d="M6.52312 5.15123L5.3233 6.35105C4.93277 6.74158 4.93277 7.37474 5.3233 7.76527L6.4329 8.87487C7.39815 9.84012 7.39815 11.4102 6.43338 12.375C5.88399 12.9244 4.68356 13.6426 3.41195 14.4029C2.54097 14.9239 1.63999 15.4626 1.1225 15.8577C0.65475 16.2141 0.528351 16.7118 0.504547 17.0665C0.462176 17.6978 0.718306 18.3724 1.17272 18.8268C1.62785 19.2819 2.30293 19.5381 2.93445 19.4955C3.28865 19.4716 3.78567 19.345 4.14154 18.8777C4.54073 18.3543 5.07942 17.4314 5.60001 16.539C6.34007 15.2705 7.03919 14.0725 7.58501 13.5266C8.54978 12.5619 10.1199 12.5619 11.0851 13.5271L12.2347 14.6767C12.6253 15.0672 13.2584 15.0672 13.6489 14.6767L14.8488 13.4769M6.52312 5.15123L14.8488 13.4769M6.52312 5.15123V5.15123C9.50125 2.1731 13.5405 0.5 17.7522 0.5H17.8809C18.7751 0.5 19.5 1.2249 19.5 2.1191V2.24782C19.5 6.45953 17.8269 10.4987 14.8488 13.4769V13.4769" stroke="#413C3C"/>
</g>
<defs>
<clipPath id="clip0_4_2905">
<rect width="20" height="20" fill="white"/>
</clipPath>
</defs>
</svg>
