<svg width="30" height="30" viewBox="0 0 30 30" fill="none" xmlns="http://www.w3.org/2000/svg">
<path d="M8.39003 11.8548C9.32233 6.72718 13.7883 3 19 3V25H6.62415C6.29916 25 6.05351 24.7057 6.11165 24.3859L8.39003 11.8548Z" fill="#413C3C"/>
<path d="M27.61 11.8548C26.6777 6.72718 22.2117 3 17 3V25H29.3759C29.7008 25 29.9465 24.7057 29.8883 24.3859L27.61 11.8548Z" fill="#413C3C"/>
<rect x="15" width="6" height="6" rx="3" fill="#413C3C"/>
<rect x="1" y="4" width="13" height="13" rx="6.5" fill="#F47B7B" stroke="#F4F3F3" stroke-width="2"/>
<path d="M14 26H22C22 28.2091 20.2091 30 18 30C15.7909 30 14 28.2091 14 26Z" fill="#413C3C"/>
</svg>
