<svg width="20" height="20" viewBox="0 0 20 20" fill="none" xmlns="http://www.w3.org/2000/svg">
<path d="M2.5 19.5H17.5C18.6046 19.5 19.5 18.6046 19.5 17.5V7.41421C19.5 7.149 19.3946 6.89464 19.2071 6.70711L13.2929 0.792893C13.1054 0.605357 12.851 0.5 12.5858 0.5H2.5C1.39543 0.5 0.5 1.39543 0.5 2.5V17.5C0.5 18.6046 1.39543 19.5 2.5 19.5Z" fill="#81BED2" stroke="#81BED2" stroke-linecap="round" stroke-linejoin="round"/>
<path d="M18.5 7.5H13C12.7239 7.5 12.5 7.27614 12.5 7V1.5" stroke="#F4F3F3" stroke-linecap="round" stroke-linejoin="round"/>
<path d="M3.16036 16.1979C3.07179 16.1979 3 16.1261 3 16.0376V11.3681C3 10.9991 3.29914 10.7 3.66816 10.7H5.02356C5.07702 10.7 5.13174 10.7025 5.18774 10.7076C5.24374 10.7101 5.3061 10.7178 5.37482 10.7305C5.63954 10.7712 5.86863 10.8679 6.06207 11.0207C6.25807 11.1708 6.40824 11.3617 6.5126 11.5934C6.61951 11.8225 6.67296 12.0744 6.67296 12.3493C6.67296 12.6242 6.61951 12.8775 6.5126 13.1091C6.40824 13.3382 6.25807 13.5291 6.06207 13.6818C5.86863 13.832 5.63954 13.9275 5.37482 13.9682C5.3061 13.9784 5.24374 13.986 5.18774 13.9911C5.13174 13.9962 5.07702 13.9987 5.02356 13.9987H3.98887C3.61986 13.9987 3.32072 14.2979 3.32072 14.6669V16.0376C3.32072 16.1261 3.24892 16.1979 3.16036 16.1979ZM3.32072 13.0099C3.32072 13.3789 3.61986 13.678 3.98887 13.678H5.02356C5.06684 13.678 5.11774 13.6755 5.17629 13.6704C5.23738 13.6653 5.29846 13.6577 5.35955 13.6475C5.57082 13.6068 5.74772 13.5228 5.89026 13.3955C6.03535 13.2682 6.1448 13.1142 6.21861 12.9335C6.29243 12.7502 6.32934 12.5555 6.32934 12.3493C6.32934 12.1432 6.29243 11.9497 6.21861 11.769C6.1448 11.5857 6.03535 11.4305 5.89026 11.3032C5.74772 11.1759 5.57082 11.0919 5.35955 11.0512C5.29846 11.0385 5.23738 11.0308 5.17629 11.0283C5.11774 11.0232 5.06684 11.0207 5.02356 11.0207H3.98887C3.61986 11.0207 3.32072 11.3198 3.32072 11.6888V13.0099Z" fill="#F4F3F3"/>
<path d="M8.86875 16.1979C8.49974 16.1979 8.2006 15.8988 8.2006 15.5298V11.3681C8.2006 10.9991 8.49974 10.7 8.86875 10.7H9.81181C9.87799 10.7 9.98362 10.7012 10.1287 10.7038C10.2738 10.7063 10.4125 10.7178 10.5449 10.7381C10.9496 10.7967 11.2843 10.9519 11.549 11.2039C11.8163 11.4559 12.0148 11.7766 12.1446 12.1661C12.2745 12.553 12.3394 12.9806 12.3394 13.4489C12.3394 13.9198 12.2745 14.35 12.1446 14.7394C12.0148 15.1263 11.8163 15.4458 11.549 15.6978C11.2843 15.9472 10.9496 16.1012 10.5449 16.1598C10.4151 16.1776 10.2751 16.189 10.1249 16.1941C9.97726 16.1967 9.8729 16.1979 9.81181 16.1979H8.86875ZM8.54422 15.2091C8.54422 15.5781 8.84337 15.8772 9.21238 15.8772H9.81181C9.93399 15.8772 10.0562 15.8734 10.1783 15.8658C10.3031 15.8581 10.4074 15.8467 10.4914 15.8314C10.8529 15.7703 11.143 15.6316 11.3619 15.4152C11.5834 15.1963 11.7437 14.9189 11.843 14.5829C11.9448 14.2444 11.9957 13.8664 11.9957 13.4489C11.9957 13.0315 11.9448 12.6548 11.843 12.3188C11.7437 11.9803 11.5834 11.7028 11.3619 11.4865C11.143 11.2676 10.8529 11.1276 10.4914 11.0665C10.4074 11.0512 10.3018 11.0398 10.1745 11.0321C10.0473 11.0245 9.92635 11.0207 9.81181 11.0207H9.21238C8.84337 11.0207 8.54422 11.3198 8.54422 11.6888V15.2091Z" fill="#F4F3F3"/>
<path d="M14.1059 16.1979C14.0174 16.1979 13.9456 16.1261 13.9456 16.0376V11.3681C13.9456 10.9991 14.2447 10.7 14.6137 10.7H16.8396C16.9282 10.7 17 10.7717 17 10.8603C17 10.9489 16.9282 11.0207 16.8396 11.0207H14.9344C14.5654 11.0207 14.2663 11.3198 14.2663 11.6888V12.6204C14.2663 12.9894 14.5654 13.2886 14.9344 13.2886H16.3815C16.47 13.2886 16.5418 13.3604 16.5418 13.4489C16.5418 13.5375 16.47 13.6093 16.3815 13.6093H14.9344C14.5654 13.6093 14.2663 13.9084 14.2663 14.2775V16.0376C14.2663 16.1261 14.1945 16.1979 14.1059 16.1979Z" fill="#F4F3F3"/>
<path d="M3.16036 16.1979C3.07179 16.1979 3 16.1261 3 16.0376V11.3681C3 10.9991 3.29914 10.7 3.66816 10.7H5.02356C5.07702 10.7 5.13174 10.7025 5.18774 10.7076C5.24374 10.7101 5.3061 10.7178 5.37482 10.7305C5.63954 10.7712 5.86863 10.8679 6.06207 11.0207C6.25807 11.1708 6.40824 11.3617 6.5126 11.5934C6.61951 11.8225 6.67296 12.0744 6.67296 12.3493C6.67296 12.6242 6.61951 12.8775 6.5126 13.1091C6.40824 13.3382 6.25807 13.5291 6.06207 13.6818C5.86863 13.832 5.63954 13.9275 5.37482 13.9682C5.3061 13.9784 5.24374 13.986 5.18774 13.9911C5.13174 13.9962 5.07702 13.9987 5.02356 13.9987H3.98887C3.61986 13.9987 3.32072 14.2979 3.32072 14.6669V16.0376C3.32072 16.1261 3.24892 16.1979 3.16036 16.1979ZM3.32072 13.0099C3.32072 13.3789 3.61986 13.678 3.98887 13.678H5.02356C5.06684 13.678 5.11774 13.6755 5.17629 13.6704C5.23738 13.6653 5.29846 13.6577 5.35955 13.6475C5.57082 13.6068 5.74772 13.5228 5.89026 13.3955C6.03535 13.2682 6.1448 13.1142 6.21861 12.9335C6.29243 12.7502 6.32934 12.5555 6.32934 12.3493C6.32934 12.1432 6.29243 11.9497 6.21861 11.769C6.1448 11.5857 6.03535 11.4305 5.89026 11.3032C5.74772 11.1759 5.57082 11.0919 5.35955 11.0512C5.29846 11.0385 5.23738 11.0308 5.17629 11.0283C5.11774 11.0232 5.06684 11.0207 5.02356 11.0207H3.98887C3.61986 11.0207 3.32072 11.3198 3.32072 11.6888V13.0099Z" stroke="#F4F3F3" stroke-width="0.7" stroke-linejoin="round"/>
<path d="M8.86875 16.1979C8.49974 16.1979 8.2006 15.8988 8.2006 15.5298V11.3681C8.2006 10.9991 8.49974 10.7 8.86875 10.7H9.81181C9.87799 10.7 9.98362 10.7012 10.1287 10.7038C10.2738 10.7063 10.4125 10.7178 10.5449 10.7381C10.9496 10.7967 11.2843 10.9519 11.549 11.2039C11.8163 11.4559 12.0148 11.7766 12.1446 12.1661C12.2745 12.553 12.3394 12.9806 12.3394 13.4489C12.3394 13.9198 12.2745 14.35 12.1446 14.7394C12.0148 15.1263 11.8163 15.4458 11.549 15.6978C11.2843 15.9472 10.9496 16.1012 10.5449 16.1598C10.4151 16.1776 10.2751 16.189 10.1249 16.1941C9.97726 16.1967 9.8729 16.1979 9.81181 16.1979H8.86875ZM8.54422 15.2091C8.54422 15.5781 8.84337 15.8772 9.21238 15.8772H9.81181C9.93399 15.8772 10.0562 15.8734 10.1783 15.8658C10.3031 15.8581 10.4074 15.8467 10.4914 15.8314C10.8529 15.7703 11.143 15.6316 11.3619 15.4152C11.5834 15.1963 11.7437 14.9189 11.843 14.5829C11.9448 14.2444 11.9957 13.8664 11.9957 13.4489C11.9957 13.0315 11.9448 12.6548 11.843 12.3188C11.7437 11.9803 11.5834 11.7028 11.3619 11.4865C11.143 11.2676 10.8529 11.1276 10.4914 11.0665C10.4074 11.0512 10.3018 11.0398 10.1745 11.0321C10.0473 11.0245 9.92635 11.0207 9.81181 11.0207H9.21238C8.84337 11.0207 8.54422 11.3198 8.54422 11.6888V15.2091Z" stroke="#F4F3F3" stroke-width="0.7" stroke-linejoin="round"/>
<path d="M14.1059 16.1979C14.0174 16.1979 13.9456 16.1261 13.9456 16.0376V11.3681C13.9456 10.9991 14.2447 10.7 14.6137 10.7H16.8396C16.9282 10.7 17 10.7717 17 10.8603C17 10.9489 16.9282 11.0207 16.8396 11.0207H14.9344C14.5654 11.0207 14.2663 11.3198 14.2663 11.6888V12.6204C14.2663 12.9894 14.5654 13.2886 14.9344 13.2886H16.3815C16.47 13.2886 16.5418 13.3604 16.5418 13.4489C16.5418 13.5375 16.47 13.6093 16.3815 13.6093H14.9344C14.5654 13.6093 14.2663 13.9084 14.2663 14.2775V16.0376C14.2663 16.1261 14.1945 16.1979 14.1059 16.1979Z" stroke="#F4F3F3" stroke-width="0.7" stroke-linejoin="round"/>
</svg>
