<svg width="20" height="20" viewBox="0 0 20 20" fill="none" xmlns="http://www.w3.org/2000/svg">
<path d="M13 0.5H2.5C1.39543 0.5 0.5 1.39543 0.5 2.5V17.5C0.5 18.6046 1.39543 19.5 2.5 19.5H17.5C18.6046 19.5 19.5 18.6046 19.5 17.5V7" stroke="#F4F3F3" stroke-linecap="round" stroke-linejoin="round"/>
<path fill-rule="evenodd" clip-rule="evenodd" d="M12.8087 0.538075C12.9955 0.460684 13.2106 0.503462 13.3536 0.646461L19.3536 6.64646C19.4966 6.78946 19.5393 7.00452 19.4619 7.19136C19.3845 7.37819 19.2022 7.50001 19 7.50001H13C12.7239 7.50001 12.5 7.27616 12.5 7.00001V1.00001C12.5 0.797783 12.6218 0.615465 12.8087 0.538075Z" stroke="#F4F3F3" stroke-linecap="round" stroke-linejoin="round"/>
<path d="M3.16036 16.198C3.07179 16.198 3 16.1262 3 16.0376V11.3682C3 10.9991 3.29914 10.7 3.66816 10.7H5.02356C5.07702 10.7 5.13174 10.7025 5.18774 10.7076C5.24374 10.7102 5.3061 10.7178 5.37482 10.7305C5.63954 10.7713 5.86863 10.868 6.06207 11.0207C6.25807 11.1709 6.40824 11.3618 6.5126 11.5934C6.61951 11.8225 6.67296 12.0745 6.67296 12.3494C6.67296 12.6243 6.61951 12.8776 6.5126 13.1092C6.40824 13.3383 6.25807 13.5292 6.06207 13.6819C5.86863 13.8321 5.63954 13.9275 5.37482 13.9682C5.3061 13.9784 5.24374 13.9861 5.18774 13.9912C5.13174 13.9962 5.07702 13.9988 5.02356 13.9988H3.98887C3.61986 13.9988 3.32072 14.2979 3.32072 14.6669V16.0376C3.32072 16.1262 3.24892 16.198 3.16036 16.198ZM3.32072 13.0099C3.32072 13.3789 3.61986 13.6781 3.98887 13.6781H5.02356C5.06684 13.6781 5.11774 13.6755 5.17629 13.6704C5.23738 13.6653 5.29846 13.6577 5.35955 13.6475C5.57082 13.6068 5.74772 13.5228 5.89026 13.3955C6.03535 13.2683 6.1448 13.1143 6.21861 12.9336C6.29243 12.7503 6.32934 12.5556 6.32934 12.3494C6.32934 12.1432 6.29243 11.9498 6.21861 11.769C6.1448 11.5858 6.03535 11.4305 5.89026 11.3032C5.74772 11.176 5.57082 11.092 5.35955 11.0513C5.29846 11.0385 5.23738 11.0309 5.17629 11.0283C5.11774 11.0233 5.06684 11.0207 5.02356 11.0207H3.98887C3.61986 11.0207 3.32072 11.3199 3.32072 11.6889V13.0099Z" fill="#F4F3F3"/>
<path d="M8.86875 16.198C8.49974 16.198 8.2006 15.8988 8.2006 15.5298V11.3682C8.2006 10.9991 8.49974 10.7 8.86875 10.7H9.81181C9.87799 10.7 9.98362 10.7013 10.1287 10.7038C10.2738 10.7064 10.4125 10.7178 10.5449 10.7382C10.9496 10.7967 11.2843 10.952 11.549 11.204C11.8163 11.456 12.0148 11.7767 12.1446 12.1661C12.2745 12.553 12.3394 12.9806 12.3394 13.449C12.3394 13.9199 12.2745 14.35 12.1446 14.7395C12.0148 15.1264 11.8163 15.4458 11.549 15.6978C11.2843 15.9473 10.9496 16.1013 10.5449 16.1598C10.4151 16.1776 10.2751 16.1891 10.1249 16.1942C9.97726 16.1967 9.8729 16.198 9.81181 16.198H8.86875ZM8.54422 15.2091C8.54422 15.5781 8.84337 15.8773 9.21238 15.8773H9.81181C9.93399 15.8773 10.0562 15.8734 10.1783 15.8658C10.3031 15.8582 10.4074 15.8467 10.4914 15.8315C10.8529 15.7704 11.143 15.6316 11.3619 15.4153C11.5834 15.1964 11.7437 14.9189 11.843 14.583C11.9448 14.2444 11.9957 13.8664 11.9957 13.449C11.9957 13.0316 11.9448 12.6548 11.843 12.3188C11.7437 11.9803 11.5834 11.7029 11.3619 11.4865C11.143 11.2676 10.8529 11.1276 10.4914 11.0665C10.4074 11.0513 10.3018 11.0398 10.1745 11.0322C10.0473 11.0245 9.92635 11.0207 9.81181 11.0207H9.21238C8.84337 11.0207 8.54422 11.3199 8.54422 11.6889V15.2091Z" fill="#F4F3F3"/>
<path d="M14.1059 16.198C14.0174 16.198 13.9456 16.1262 13.9456 16.0376V11.3682C13.9456 10.9991 14.2447 10.7 14.6137 10.7H16.8396C16.9282 10.7 17 10.7718 17 10.8604C17 10.9489 16.9282 11.0207 16.8396 11.0207H14.9344C14.5654 11.0207 14.2663 11.3199 14.2663 11.6889V12.6205C14.2663 12.9895 14.5654 13.2886 14.9344 13.2886H16.3815C16.47 13.2886 16.5418 13.3604 16.5418 13.449C16.5418 13.5376 16.47 13.6093 16.3815 13.6093H14.9344C14.5654 13.6093 14.2663 13.9085 14.2663 14.2775V16.0376C14.2663 16.1262 14.1945 16.198 14.1059 16.198Z" fill="#F4F3F3"/>
<path d="M3.16036 16.198C3.07179 16.198 3 16.1262 3 16.0376V11.3682C3 10.9991 3.29914 10.7 3.66816 10.7H5.02356C5.07702 10.7 5.13174 10.7025 5.18774 10.7076C5.24374 10.7102 5.3061 10.7178 5.37482 10.7305C5.63954 10.7713 5.86863 10.868 6.06207 11.0207C6.25807 11.1709 6.40824 11.3618 6.5126 11.5934C6.61951 11.8225 6.67296 12.0745 6.67296 12.3494C6.67296 12.6243 6.61951 12.8776 6.5126 13.1092C6.40824 13.3383 6.25807 13.5292 6.06207 13.6819C5.86863 13.8321 5.63954 13.9275 5.37482 13.9682C5.3061 13.9784 5.24374 13.9861 5.18774 13.9912C5.13174 13.9962 5.07702 13.9988 5.02356 13.9988H3.98887C3.61986 13.9988 3.32072 14.2979 3.32072 14.6669V16.0376C3.32072 16.1262 3.24892 16.198 3.16036 16.198ZM3.32072 13.0099C3.32072 13.3789 3.61986 13.6781 3.98887 13.6781H5.02356C5.06684 13.6781 5.11774 13.6755 5.17629 13.6704C5.23738 13.6653 5.29846 13.6577 5.35955 13.6475C5.57082 13.6068 5.74772 13.5228 5.89026 13.3955C6.03535 13.2683 6.1448 13.1143 6.21861 12.9336C6.29243 12.7503 6.32934 12.5556 6.32934 12.3494C6.32934 12.1432 6.29243 11.9498 6.21861 11.769C6.1448 11.5858 6.03535 11.4305 5.89026 11.3032C5.74772 11.176 5.57082 11.092 5.35955 11.0513C5.29846 11.0385 5.23738 11.0309 5.17629 11.0283C5.11774 11.0233 5.06684 11.0207 5.02356 11.0207H3.98887C3.61986 11.0207 3.32072 11.3199 3.32072 11.6889V13.0099Z" stroke="#F4F3F3" stroke-width="0.7" stroke-linejoin="round"/>
<path d="M8.86875 16.198C8.49974 16.198 8.2006 15.8988 8.2006 15.5298V11.3682C8.2006 10.9991 8.49974 10.7 8.86875 10.7H9.81181C9.87799 10.7 9.98362 10.7013 10.1287 10.7038C10.2738 10.7064 10.4125 10.7178 10.5449 10.7382C10.9496 10.7967 11.2843 10.952 11.549 11.204C11.8163 11.456 12.0148 11.7767 12.1446 12.1661C12.2745 12.553 12.3394 12.9806 12.3394 13.449C12.3394 13.9199 12.2745 14.35 12.1446 14.7395C12.0148 15.1264 11.8163 15.4458 11.549 15.6978C11.2843 15.9473 10.9496 16.1013 10.5449 16.1598C10.4151 16.1776 10.2751 16.1891 10.1249 16.1942C9.97726 16.1967 9.8729 16.198 9.81181 16.198H8.86875ZM8.54422 15.2091C8.54422 15.5781 8.84337 15.8773 9.21238 15.8773H9.81181C9.93399 15.8773 10.0562 15.8734 10.1783 15.8658C10.3031 15.8582 10.4074 15.8467 10.4914 15.8315C10.8529 15.7704 11.143 15.6316 11.3619 15.4153C11.5834 15.1964 11.7437 14.9189 11.843 14.583C11.9448 14.2444 11.9957 13.8664 11.9957 13.449C11.9957 13.0316 11.9448 12.6548 11.843 12.3188C11.7437 11.9803 11.5834 11.7029 11.3619 11.4865C11.143 11.2676 10.8529 11.1276 10.4914 11.0665C10.4074 11.0513 10.3018 11.0398 10.1745 11.0322C10.0473 11.0245 9.92635 11.0207 9.81181 11.0207H9.21238C8.84337 11.0207 8.54422 11.3199 8.54422 11.6889V15.2091Z" stroke="#F4F3F3" stroke-width="0.7" stroke-linejoin="round"/>
<path d="M14.1059 16.198C14.0174 16.198 13.9456 16.1262 13.9456 16.0376V11.3682C13.9456 10.9991 14.2447 10.7 14.6137 10.7H16.8396C16.9282 10.7 17 10.7718 17 10.8604C17 10.9489 16.9282 11.0207 16.8396 11.0207H14.9344C14.5654 11.0207 14.2663 11.3199 14.2663 11.6889V12.6205C14.2663 12.9895 14.5654 13.2886 14.9344 13.2886H16.3815C16.47 13.2886 16.5418 13.3604 16.5418 13.449C16.5418 13.5376 16.47 13.6093 16.3815 13.6093H14.9344C14.5654 13.6093 14.2663 13.9085 14.2663 14.2775V16.0376C14.2663 16.1262 14.1945 16.198 14.1059 16.198Z" stroke="#F4F3F3" stroke-width="0.7" stroke-linejoin="round"/>
</svg>
