<svg width="30" height="30" viewBox="0 0 30 30" fill="none" xmlns="http://www.w3.org/2000/svg">
<path d="M7.22222 22.7778H22.7778M4.11111 29H25.8889C27.6071 29 29 27.6071 29 25.8889V10.3333C29 8.61511 27.6071 7.22222 25.8889 7.22222H24.4548C24.3834 7.22222 24.3212 7.17364 24.3039 7.10439L23.3669 3.35655C23.0207 1.97159 21.7763 1 20.3487 1H9.6513C8.22372 1 6.97932 1.97159 6.63308 3.35656L5.69612 7.10439C5.67881 7.17364 5.61659 7.22222 5.54521 7.22222H4.11111C2.39289 7.22222 1 8.61511 1 10.3333V25.8889C1 27.6071 2.39289 29 4.11111 29ZM15 18.1111C12.4227 18.1111 10.3333 16.0218 10.3333 13.4444C10.3333 10.8671 12.4227 8.77778 15 8.77778C17.5773 8.77778 19.6667 10.8671 19.6667 13.4444C19.6667 16.0218 17.5773 18.1111 15 18.1111Z" stroke="#F4F3F3" stroke-width="2" stroke-linecap="round"/>
</svg>
