<svg width="20" height="20" viewBox="0 0 20 20" fill="none" xmlns="http://www.w3.org/2000/svg">
<g clip-path="url(#clip0_4_2892)">
<path d="M12 18.5C12 19.0523 11.5523 19.5 11 19.5H9C8.44772 19.5 8 19.0523 8 18.5V6.5C8 5.94772 8.44772 5.5 9 5.5H11C11.5523 5.5 12 5.94772 12 6.5V18.5Z" stroke="#413C3C"/>
<path d="M19.5 18.5C19.5 19.0523 19.0523 19.5 18.5 19.5H16.5C15.9477 19.5 15.5 19.0523 15.5 18.5V1.5C15.5 0.947714 15.9477 0.5 16.5 0.5H18.5C19.0523 0.5 19.5 0.947715 19.5 1.5V18.5Z" stroke="#413C3C"/>
<rect x="4.5" y="19.5" width="4" height="9" rx="1" transform="rotate(180 4.5 19.5)" stroke="#413C3C"/>
</g>
<defs>
<clipPath id="clip0_4_2892">
<rect width="20" height="20" fill="white"/>
</clipPath>
</defs>
</svg>
