<svg width="30" height="30" viewBox="0 0 30 30" fill="none" xmlns="http://www.w3.org/2000/svg">
<path d="M12.0526 15V8.43541C12.0526 7.99146 12.4125 7.63158 12.8565 7.63158H17.2105C19.2453 7.63158 20.8947 9.28106 20.8947 11.3158C20.8947 13.3505 19.2453 15 17.2105 15H12.0526ZM12.0526 15V22.3684M12.0526 15H9.10526M9.10526 17.9474H17.9474M15 29C7.26801 29 1 22.732 1 15C1 7.26801 7.26801 1 15 1C22.732 1 29 7.26801 29 15C29 22.732 22.732 29 15 29Z" stroke="#A2A0A0" stroke-width="2" stroke-linecap="round"/>
</svg>
