<svg width="20" height="20" viewBox="0 0 20 20" fill="none" xmlns="http://www.w3.org/2000/svg">
<g clip-path="url(#clip0_617_2445)">
<path d="M17.7929 19.2071C18.1834 19.5976 18.8166 19.5976 19.2071 19.2071C19.5976 18.8166 19.5976 18.1834 19.2071 17.7929L17.7929 19.2071ZM19.2071 17.7929L13.7071 12.2929L12.2929 13.7071L17.7929 19.2071L19.2071 17.7929ZM14 8C14 11.3137 11.3137 14 8 14V16C12.4183 16 16 12.4183 16 8H14ZM8 14C4.68629 14 2 11.3137 2 8H0C0 12.4183 3.58172 16 8 16V14ZM2 8C2 4.68629 4.68629 2 8 2V0C3.58172 0 0 3.58172 0 8H2ZM8 2C11.3137 2 14 4.68629 14 8H16C16 3.58172 12.4183 0 8 0V2Z" fill="#413C3C" fill-opacity="0.1"/>
</g>
<defs>
<clipPath id="clip0_617_2445">
<rect width="20" height="20" rx="2" fill="white"/>
</clipPath>
</defs>
</svg>
