<svg width="20" height="20" viewBox="0 0 20 20" fill="none" xmlns="http://www.w3.org/2000/svg">
<g clip-path="url(#clip0_4_2909)">
<path d="M11 8.33333L13.1389 10.6505C13.3506 10.8798 13.7182 10.8613 13.9058 10.612L17 6.5" stroke="#413C3C" stroke-linecap="round"/>
<path d="M14.2322 14C14.0756 14.7372 13.7698 15.4374 13.3309 16.0562C12.7531 16.8709 11.9662 17.5144 11.0531 17.9189L8.02591 19.3098C7.76297 19.4306 7.46059 19.4316 7.19686 19.3125L4.11071 17.9189C3.20777 17.5142 2.42968 16.875 1.85726 16.0678C1.28485 15.2607 0.938985 14.315 0.855602 13.329L0.524886 4.28773C0.50987 3.87723 0.747423 3.4993 1.12384 3.33483L7.21163 0.674933C7.46689 0.563402 7.75711 0.563402 8.01238 0.674933L13 2.85414L13.5 3.0726" stroke="#413C3C"/>
<rect x="8.5" y="3" width="11" height="11" rx="5.5" stroke="#413C3C"/>
</g>
<defs>
<clipPath id="clip0_4_2909">
<rect width="20" height="20" fill="white"/>
</clipPath>
</defs>
</svg>
