<svg width="21" height="20" viewBox="0 0 21 20" fill="none" xmlns="http://www.w3.org/2000/svg">
<path d="M2.3165 5.2254L2.48751 5.69525L2.3165 5.2254ZM13.5928 1.12116L13.4218 0.651313L13.5928 1.12116ZM18.7231 15.2165L18.8941 15.6864L18.7231 15.2165ZM7.44681 19.3208L7.2758 18.8509L7.44681 19.3208ZM4.88338 18.1254L5.35323 17.9544L4.88338 18.1254ZM1.12116 7.78883L0.651313 7.95984L1.12116 7.78883ZM16.1562 2.3165L15.6864 2.48751V2.48751L16.1562 2.3165ZM19.9185 12.6531L20.3883 12.4821L19.9185 12.6531ZM15.6028 11.0311L15.4318 10.5613L15.6028 11.0311ZM13.0394 9.83576L13.5092 9.66475L13.0394 9.83576ZM19.6172 7.44162L19.1474 7.61263L19.6172 7.44162ZM18.4219 10.005L18.5929 10.4749L18.4219 10.005ZM16.7118 5.30658L16.5407 4.83673L16.7118 5.30658ZM19.2752 6.50192L19.745 6.33091L19.2752 6.50192ZM13.8927 6.33264L14.0637 6.80248L13.8927 6.33264ZM12.6973 8.89606L12.2275 9.06707L12.6973 8.89606ZM15.0281 7.98935C14.7686 8.08379 14.6348 8.37072 14.7292 8.6302C14.8237 8.88969 15.1106 9.02349 15.3701 8.92904L15.0281 7.98935ZM17.2495 8.245C17.509 8.15055 17.6427 7.86363 17.5483 7.60414C17.4539 7.34466 17.1669 7.21086 16.9074 7.30531L17.2495 8.245ZM2.48751 5.69525L13.7638 1.59101L13.4218 0.651313L2.14549 4.75555L2.48751 5.69525ZM18.5521 14.7467L7.2758 18.8509L7.61782 19.7906L18.8941 15.6864L18.5521 14.7467ZM5.35323 17.9544L1.59101 7.61782L0.651313 7.95984L4.41353 18.2965L5.35323 17.9544ZM15.6864 2.48751L16.6269 5.07167L17.5666 4.72965L16.6261 2.14549L15.6864 2.48751ZM18.5081 10.24L19.4486 12.8241L20.3883 12.4821L19.4478 9.89796L18.5081 10.24ZM7.2758 18.8509C6.49733 19.1343 5.63657 18.7329 5.35323 17.9544L4.41353 18.2965C4.88577 19.5939 6.32037 20.2629 7.61782 19.7906L7.2758 18.8509ZM18.8941 15.6864C20.1916 15.2142 20.8605 13.7796 20.3883 12.4821L19.4486 12.8241C19.732 13.6026 19.3306 14.4634 18.5521 14.7467L18.8941 15.6864ZM13.7638 1.59101C14.5423 1.30767 15.4031 1.70905 15.6864 2.48751L16.6261 2.14549C16.1539 0.848049 14.7192 0.179081 13.4218 0.651313L13.7638 1.59101ZM2.14549 4.75555C0.848049 5.22779 0.179081 6.66239 0.651313 7.95984L1.59101 7.61782C1.30767 6.83935 1.70905 5.97859 2.48751 5.69525L2.14549 4.75555ZM14.0637 6.80248L16.8828 5.77642L16.5407 4.83673L13.7217 5.86279L14.0637 6.80248ZM18.8053 6.67293L19.1474 7.61263L20.087 7.27061L19.745 6.33091L18.8053 6.67293ZM18.2508 9.53519L15.4318 10.5613L15.7738 11.5009L18.5929 10.4749L18.2508 9.53519ZM13.5092 9.66475L13.1672 8.72505L12.2275 9.06707L12.5695 10.0068L13.5092 9.66475ZM15.4318 10.5613C14.6533 10.8446 13.7925 10.4432 13.5092 9.66475L12.5695 10.0068C13.0417 11.3042 14.4763 11.9732 15.7738 11.5009L15.4318 10.5613ZM19.1474 7.61263C19.4307 8.39109 19.0293 9.25186 18.2508 9.53519L18.5929 10.4749C19.8903 10.0027 20.5593 8.56805 20.087 7.27061L19.1474 7.61263ZM16.8828 5.77642C17.6612 5.49309 18.522 5.89447 18.8053 6.67293L19.745 6.33091C19.2728 5.03347 17.8382 4.3645 16.5407 4.83673L16.8828 5.77642ZM13.7217 5.86279C12.4242 6.33502 11.7553 7.76963 12.2275 9.06707L13.1672 8.72505C12.8838 7.94659 13.2852 7.08582 14.0637 6.80248L13.7217 5.86279ZM15.3701 8.92904L17.2495 8.245L16.9074 7.30531L15.0281 7.98935L15.3701 8.92904Z" fill="#F4F3F3"/>
</svg>
