<svg width="213" height="56" viewBox="0 0 213 56" fill="none" xmlns="http://www.w3.org/2000/svg">
<path d="M19.5763 25.1125L26.8613 13.2532L19.2711 1H5.00654C1.84263 1 -0.068872 4.49949 1.64091 7.16161L10.9523 21.6594C12.9149 24.7151 16.438 25.8661 19.5763 25.1125Z" fill="#413C3C"/>
<path d="M10.1109 35.3419C13.6531 29.8268 21.714 29.8268 25.2562 35.3419L31.2019 44.5994C31.6294 45.265 31.1515 46.1398 30.3605 46.1398H5.00654C4.21556 46.1398 3.73769 45.265 4.16513 44.5994L10.1109 35.3419Z" stroke="#413C3C" stroke-width="6"/>
<path fill-rule="evenodd" clip-rule="evenodd" d="M95.4957 49.4839C94.2037 49.4839 93.0817 49.2346 92.1297 48.7359C91.1777 48.2146 90.441 47.4666 89.9197 46.4919V55.2639H83.4597V31.2599H89.0697V33.9459C89.7044 32.9713 90.4864 32.2233 91.4157 31.7019C92.3677 31.1806 93.5124 30.9199 94.8497 30.9199C96.051 30.9199 97.1504 31.1466 98.1477 31.5999C99.145 32.0533 100.018 32.6993 100.766 33.5379C101.514 34.3766 102.092 35.3513 102.5 36.4619C102.908 37.5726 103.112 38.7966 103.112 40.1339C103.112 41.9246 102.783 43.5226 102.126 44.9279C101.468 46.3333 100.562 47.4439 99.4057 48.2599C98.2724 49.0759 96.969 49.4839 95.4957 49.4839ZM93.2517 44.0439C93.7277 44.0439 94.1584 43.9419 94.5437 43.7379C94.9517 43.5339 95.303 43.2506 95.5977 42.8879C95.8924 42.5253 96.119 42.1059 96.2777 41.6299C96.4364 41.1539 96.5157 40.6439 96.5157 40.0999C96.5157 39.5333 96.425 39.0233 96.2437 38.5699C96.085 38.1166 95.847 37.7313 95.5297 37.4139C95.2124 37.0739 94.8384 36.8133 94.4077 36.6319C93.977 36.4506 93.501 36.3599 92.9797 36.3599C92.685 36.3599 92.3904 36.4053 92.0957 36.4959C91.8237 36.5639 91.563 36.6773 91.3137 36.8359C91.0644 36.9719 90.815 37.1533 90.5657 37.3799C90.339 37.6066 90.1237 37.8786 89.9197 38.1959V41.2899C90.1237 41.8113 90.3957 42.2873 90.7357 42.7179C91.0984 43.1259 91.495 43.4546 91.9257 43.7039C92.3564 43.9306 92.7984 44.0439 93.2517 44.0439Z" fill="#413C3C"/>
<path d="M63.375 49.1398V31.2558H74.187C75.615 31.2558 76.7483 31.4598 77.587 31.8678C78.4257 32.2531 79.0263 32.7744 79.389 33.4318C79.7743 34.0664 79.967 34.7691 79.967 35.5398C79.967 36.5824 79.7403 37.4664 79.287 38.1918C78.8563 38.9171 78.1537 39.4951 77.179 39.9258C78.2217 40.2204 79.083 40.6964 79.763 41.3538C80.443 42.0111 80.783 42.9631 80.783 44.2098C80.783 45.4564 80.4883 46.4424 79.899 47.1678C79.3323 47.8931 78.4937 48.4031 77.383 48.6978C76.2723 48.9924 74.9237 49.1398 73.337 49.1398H63.375ZM69.495 44.8558H73.133C73.405 44.8558 73.643 44.7991 73.847 44.6858C74.0737 44.5724 74.2437 44.4138 74.357 44.2098C74.493 44.0058 74.561 43.7564 74.561 43.4618C74.561 43.1671 74.493 42.9178 74.357 42.7138C74.2437 42.5098 74.0737 42.3511 73.847 42.2378C73.643 42.1244 73.405 42.0678 73.133 42.0678H69.495V44.8558ZM69.495 38.1578H72.589C72.861 38.1578 73.099 38.1011 73.303 37.9878C73.507 37.8744 73.6543 37.7158 73.745 37.5118C73.8583 37.3078 73.915 37.0698 73.915 36.7978C73.915 36.4124 73.7903 36.1064 73.541 35.8798C73.3143 35.6531 72.997 35.5398 72.589 35.5398H69.495V38.1578Z" fill="#413C3C"/>
<path d="M114.281 49.4798C112.717 49.4798 111.323 49.2418 110.099 48.7658C108.875 48.2671 107.844 47.5984 107.005 46.7598C106.189 45.9211 105.566 44.9578 105.135 43.8698C104.704 42.7818 104.489 41.6371 104.489 40.4358C104.489 38.7131 104.863 37.1378 105.611 35.7098C106.359 34.2591 107.458 33.1031 108.909 32.2418C110.36 31.3578 112.15 30.9158 114.281 30.9158C116.412 30.9158 118.202 31.3464 119.653 32.2078C121.104 33.0691 122.203 34.2024 122.951 35.6078C123.699 37.0131 124.073 38.5431 124.073 40.1978C124.073 40.5378 124.05 40.8891 124.005 41.2518C123.982 41.5918 123.948 41.8978 123.903 42.1698H111.357C111.402 42.8044 111.572 43.3258 111.867 43.7338C112.184 44.1191 112.57 44.4024 113.023 44.5838C113.499 44.7651 113.986 44.8558 114.485 44.8558C115.188 44.8558 115.845 44.6971 116.457 44.3798C117.092 44.0624 117.511 43.6204 117.715 43.0538L123.189 44.6178C122.713 45.5698 122.044 46.4084 121.183 47.1338C120.344 47.8591 119.347 48.4371 118.191 48.8678C117.035 49.2758 115.732 49.4798 114.281 49.4798ZM111.221 38.2938H117.137C117.069 37.7044 116.899 37.2058 116.627 36.7978C116.378 36.3898 116.038 36.0724 115.607 35.8458C115.199 35.6191 114.723 35.5058 114.179 35.5058C113.635 35.5058 113.148 35.6191 112.717 35.8458C112.309 36.0724 111.969 36.3898 111.697 36.7978C111.448 37.2058 111.289 37.7044 111.221 38.2938Z" fill="#413C3C"/>
<path d="M126.262 49.1398V31.2558H133.028L137.38 39.9258L141.766 31.2558H148.498V49.1398H142.378V39.9258L139.386 46.0118H135.374L132.382 39.9258V49.1398H126.262Z" fill="#413C3C"/>
<path d="M160.633 49.4798C159.069 49.4798 157.675 49.2418 156.451 48.7658C155.227 48.2671 154.195 47.5984 153.357 46.7598C152.541 45.9211 151.917 44.9578 151.487 43.8698C151.056 42.7818 150.841 41.6371 150.841 40.4358C150.841 38.7131 151.215 37.1378 151.963 35.7098C152.711 34.2591 153.81 33.1031 155.261 32.2418C156.711 31.3578 158.502 30.9158 160.633 30.9158C162.763 30.9158 164.554 31.3464 166.005 32.2078C167.455 33.0691 168.555 34.2024 169.303 35.6078C170.051 37.0131 170.425 38.5431 170.425 40.1978C170.425 40.5378 170.402 40.8891 170.357 41.2518C170.334 41.5918 170.3 41.8978 170.255 42.1698H157.709C157.754 42.8044 157.924 43.3258 158.219 43.7338C158.536 44.1191 158.921 44.4024 159.375 44.5838C159.851 44.7651 160.338 44.8558 160.837 44.8558C161.539 44.8558 162.197 44.6971 162.809 44.3798C163.443 44.0624 163.863 43.6204 164.067 43.0538L169.541 44.6178C169.065 45.5698 168.396 46.4084 167.535 47.1338C166.696 47.8591 165.699 48.4371 164.543 48.8678C163.387 49.2758 162.083 49.4798 160.633 49.4798ZM157.573 38.2938H163.489C163.421 37.7044 163.251 37.2058 162.979 36.7978C162.729 36.3898 162.389 36.0724 161.959 35.8458C161.551 35.6191 161.075 35.5058 160.531 35.5058C159.987 35.5058 159.499 35.6191 159.069 35.8458C158.661 36.0724 158.321 36.3898 158.049 36.7978C157.799 37.2058 157.641 37.7044 157.573 38.2938Z" fill="#413C3C"/>
<path d="M172.613 49.1398V31.2558H179.073V37.3418H183.833V31.2558H190.293V49.1398H183.833V42.6118H179.073V49.1398H172.613Z" fill="#413C3C"/>
<path d="M193.697 49.1398V31.2558H200.157V40.5378L205.801 31.2558H211.683V49.1398H205.223V40.1638L199.613 49.1398H193.697Z" fill="#413C3C"/>
<path d="M33.5021 1L37.8881 8.616L42.2741 1H49.4141L41.8321 13.24L49.1421 25.14H42.0021L37.8881 17.864L33.7741 25.14H26.6001L33.9101 13.24L26.3281 1H33.5021Z" fill="#413C3C"/>
<path fill-rule="evenodd" clip-rule="evenodd" d="M62.7158 25.48C61.4238 25.48 60.3018 25.2307 59.3498 24.732C58.3978 24.2107 57.6612 23.4627 57.1398 22.488V31.26H50.6798V7.256H56.2898V9.942C56.9245 8.96733 57.7065 8.21933 58.6358 7.698C59.5878 7.17667 60.7325 6.916 62.0698 6.916C63.2712 6.916 64.3705 7.14267 65.3678 7.596C66.3652 8.04933 67.2378 8.69533 67.9858 9.534C68.7338 10.3727 69.3118 11.3473 69.7198 12.458C70.1278 13.5687 70.3318 14.7927 70.3318 16.13C70.3318 17.9207 70.0032 19.5187 69.3458 20.924C68.6885 22.3293 67.7818 23.44 66.6258 24.256C65.4925 25.072 64.1892 25.48 62.7158 25.48ZM60.4718 20.04C60.9478 20.04 61.3785 19.938 61.7638 19.734C62.1718 19.53 62.5232 19.2467 62.8178 18.884C63.1125 18.5213 63.3392 18.102 63.4978 17.626C63.6565 17.15 63.7358 16.64 63.7358 16.096C63.7358 15.5293 63.6452 15.0193 63.4638 14.566C63.3052 14.1127 63.0672 13.7273 62.7498 13.41C62.4325 13.07 62.0585 12.8093 61.6278 12.628C61.1972 12.4467 60.7212 12.356 60.1998 12.356C59.9052 12.356 59.6105 12.4013 59.3158 12.492C59.0438 12.56 58.7832 12.6733 58.5338 12.832C58.2845 12.968 58.0352 13.1493 57.7858 13.376C57.5592 13.6027 57.3438 13.8747 57.1398 14.192V17.286C57.3438 17.8073 57.6158 18.2833 57.9558 18.714C58.3185 19.122 58.7152 19.4507 59.1458 19.7C59.5765 19.9267 60.0185 20.04 60.4718 20.04Z" fill="#413C3C"/>
<path fill-rule="evenodd" clip-rule="evenodd" d="M72.6935 16.572C72.0362 17.4787 71.7075 18.5327 71.7075 19.734C71.7075 20.822 71.9795 21.808 72.5235 22.692C73.0675 23.5533 73.8155 24.2333 74.7675 24.732C75.7195 25.2307 76.7848 25.48 77.9635 25.48C79.1422 25.48 80.2528 25.2193 81.2955 24.698C82.3382 24.154 83.2562 23.372 84.0495 22.352L84.1855 22.998C84.3668 23.814 84.7522 24.4373 85.3415 24.868C85.9535 25.276 86.8375 25.48 87.9935 25.48C88.3562 25.48 88.7642 25.446 89.2175 25.378C89.6935 25.3327 90.1922 25.2533 90.7135 25.14V19.7C90.2602 19.6547 89.9428 19.5187 89.7615 19.292C89.5802 19.0427 89.4895 18.612 89.4895 18V14.532C89.4895 12.016 88.7075 10.1233 87.1435 8.854C85.6022 7.562 83.4148 6.916 80.5815 6.916C79.0628 6.916 77.6348 7.10867 76.2975 7.494C74.9828 7.85667 73.7248 8.42333 72.5235 9.194L74.3935 13.206C75.3455 12.5713 76.2522 12.0953 77.1135 11.778C77.9975 11.438 78.9382 11.268 79.9355 11.268C81.0235 11.268 81.8055 11.472 82.2815 11.88C82.7802 12.288 83.0295 12.9113 83.0295 13.75V14.294C82.5762 14.0673 82.0322 13.8973 81.3975 13.784C80.7855 13.6707 80.1282 13.614 79.4255 13.614C77.9295 13.614 76.5922 13.8747 75.4135 14.396C74.2575 14.9173 73.3508 15.6427 72.6935 16.572ZM82.7915 19.598C82.6328 19.802 82.4288 19.9947 82.1795 20.176C81.8848 20.38 81.5222 20.55 81.0915 20.686C80.6835 20.7993 80.2868 20.856 79.9015 20.856C79.4935 20.856 79.1308 20.788 78.8135 20.652C78.4962 20.4933 78.2468 20.2893 78.0655 20.04C77.8842 19.768 77.7935 19.4733 77.7935 19.156C77.7935 18.5667 78.0542 18.0793 78.5755 17.694C79.1195 17.3087 79.7768 17.116 80.5475 17.116C80.9102 17.116 81.3182 17.1613 81.7715 17.252C82.2475 17.3427 82.6668 17.456 83.0295 17.592V18.918C83.0295 19.1447 82.9502 19.3713 82.7915 19.598Z" fill="#413C3C"/>
<path d="M93.115 25.14V7.256H99.575V13.342H104.335V7.256H110.795V25.14H104.335V18.612H99.575V25.14H93.115Z" fill="#413C3C"/>
<path d="M114.199 7.256V25.14H120.115L125.725 16.164V25.14H132.185V7.256H126.303L120.659 16.538V7.256H114.199Z" fill="#413C3C"/>
<path d="M139.424 25.14V12.866H134.324V7.256H150.984V12.866H145.884V25.14H139.424Z" fill="#413C3C"/>
<path fill-rule="evenodd" clip-rule="evenodd" d="M157.603 24.766C158.827 25.242 160.221 25.48 161.785 25.48C163.235 25.48 164.539 25.276 165.695 24.868C166.851 24.4373 167.848 23.8593 168.687 23.134C169.548 22.4087 170.217 21.57 170.693 20.618L165.219 19.054C165.015 19.6207 164.595 20.0627 163.961 20.38C163.349 20.6973 162.691 20.856 161.989 20.856C161.49 20.856 161.003 20.7653 160.527 20.584C160.073 20.4027 159.688 20.1193 159.371 19.734C159.076 19.326 158.906 18.8047 158.861 18.17H171.407C171.452 17.898 171.486 17.592 171.509 17.252C171.554 16.8893 171.577 16.538 171.577 16.198C171.577 14.5433 171.203 13.0133 170.455 11.608C169.707 10.2027 168.607 9.06933 167.157 8.208C165.706 7.34667 163.915 6.916 161.785 6.916C159.654 6.916 157.863 7.358 156.413 8.242C154.962 9.10333 153.863 10.2593 153.115 11.71C152.367 13.138 151.993 14.7133 151.993 16.436C151.993 17.6373 152.208 18.782 152.639 19.87C153.069 20.958 153.693 21.9213 154.509 22.76C155.347 23.5987 156.379 24.2673 157.603 24.766ZM164.641 14.294H158.725C158.793 13.7047 158.951 13.206 159.201 12.798C159.473 12.39 159.813 12.0727 160.221 11.846C160.651 11.6193 161.139 11.506 161.683 11.506C162.227 11.506 162.703 11.6193 163.111 11.846C163.541 12.0727 163.881 12.39 164.131 12.798C164.403 13.206 164.573 13.7047 164.641 14.294Z" fill="#413C3C"/>
<path d="M172.745 25.48V19.768C173.267 19.7453 173.72 19.6433 174.105 19.462C174.491 19.2807 174.819 18.9747 175.091 18.544C175.386 18.0907 175.613 17.456 175.771 16.64C175.93 15.8013 176.043 14.7247 176.111 13.41L176.383 7.256H191.309V25.14H184.849V12.866H182.095L182.027 14.09C181.914 16.2887 181.653 18.1247 181.245 19.598C180.837 21.0713 180.259 22.2387 179.511 23.1C178.763 23.9387 177.834 24.5393 176.723 24.902C175.613 25.2647 174.287 25.4573 172.745 25.48Z" fill="#413C3C"/>
<path fill-rule="evenodd" clip-rule="evenodd" d="M201.177 7.256H194.717V25.14H205.189C206.594 25.14 207.773 24.868 208.725 24.324C209.699 23.78 210.436 23.0093 210.935 22.012C211.433 21.0147 211.683 19.8587 211.683 18.544C211.683 16.6627 211.082 15.1553 209.881 14.022C208.679 12.866 206.979 12.288 204.781 12.288H201.177V7.256ZM204.101 20.278H201.177V16.81H204.101C204.463 16.81 204.769 16.8893 205.019 17.048C205.268 17.184 205.449 17.3767 205.563 17.626C205.699 17.8753 205.767 18.1813 205.767 18.544C205.767 18.9067 205.699 19.224 205.563 19.496C205.449 19.7453 205.268 19.938 205.019 20.074C204.769 20.21 204.463 20.278 204.101 20.278Z" fill="#413C3C"/>
</svg>
