<svg width="50" height="50" viewBox="0 0 50 50" fill="none" xmlns="http://www.w3.org/2000/svg">
<g clip-path="url(#clip0_1_403)">
<path d="M19.5763 25.1125L26.8613 13.2532L19.2711 1H5.00654C1.84263 1 -0.068872 4.49949 1.64091 7.16161L10.9523 21.6594C12.9149 24.7151 16.438 25.8661 19.5763 25.1125Z" fill="#413C3C"/>
<path d="M10.1109 35.3419C13.6531 29.8268 21.714 29.8268 25.2562 35.3419L31.2019 44.5994C31.6294 45.265 31.1515 46.1398 30.3605 46.1398H5.00654C4.21556 46.1398 3.73769 45.265 4.16513 44.5994L10.1109 35.3419Z" stroke="#413C3C" stroke-width="6"/>
<path d="M33.5021 1L37.8881 8.616L42.2741 1H49.4141L41.8321 13.24L49.1421 25.14H42.0021L37.8881 17.864L33.7741 25.14H26.6001L33.9101 13.24L26.3281 1H33.5021Z" fill="#413C3C"/>
<path fill-rule="evenodd" clip-rule="evenodd" d="M62.7158 25.48C61.4238 25.48 60.3018 25.2307 59.3498 24.732C58.3978 24.2107 57.6612 23.4627 57.1398 22.488V31.26H50.6798V7.256H56.2898V9.942C56.9245 8.96733 57.7065 8.21933 58.6358 7.698C59.5878 7.17667 60.7325 6.916 62.0698 6.916C63.2712 6.916 64.3705 7.14267 65.3678 7.596C66.3652 8.04933 67.2378 8.69533 67.9858 9.534C68.7338 10.3727 69.3118 11.3473 69.7198 12.458C70.1278 13.5687 70.3318 14.7927 70.3318 16.13C70.3318 17.9207 70.0032 19.5187 69.3458 20.924C68.6885 22.3293 67.7818 23.44 66.6258 24.256C65.4925 25.072 64.1892 25.48 62.7158 25.48ZM60.4718 20.04C60.9478 20.04 61.3785 19.938 61.7638 19.734C62.1718 19.53 62.5232 19.2467 62.8178 18.884C63.1125 18.5213 63.3392 18.102 63.4978 17.626C63.6565 17.15 63.7358 16.64 63.7358 16.096C63.7358 15.5293 63.6452 15.0193 63.4638 14.566C63.3052 14.1127 63.0672 13.7273 62.7498 13.41C62.4325 13.07 62.0585 12.8093 61.6278 12.628C61.1972 12.4467 60.7212 12.356 60.1998 12.356C59.9052 12.356 59.6105 12.4013 59.3158 12.492C59.0438 12.56 58.7832 12.6733 58.5338 12.832C58.2845 12.968 58.0352 13.1493 57.7858 13.376C57.5592 13.6027 57.3438 13.8747 57.1398 14.192V17.286C57.3438 17.8073 57.6158 18.2833 57.9558 18.714C58.3185 19.122 58.7152 19.4507 59.1458 19.7C59.5765 19.9267 60.0185 20.04 60.4718 20.04Z" fill="#413C3C"/>
<path fill-rule="evenodd" clip-rule="evenodd" d="M72.6935 16.572C72.0362 17.4787 71.7075 18.5327 71.7075 19.734C71.7075 20.822 71.9795 21.808 72.5235 22.692C73.0675 23.5533 73.8155 24.2333 74.7675 24.732C75.7195 25.2307 76.7848 25.48 77.9635 25.48C79.1422 25.48 80.2528 25.2193 81.2955 24.698C82.3382 24.154 83.2562 23.372 84.0495 22.352L84.1855 22.998C84.3668 23.814 84.7522 24.4373 85.3415 24.868C85.9535 25.276 86.8375 25.48 87.9935 25.48C88.3562 25.48 88.7642 25.446 89.2175 25.378C89.6935 25.3327 90.1922 25.2533 90.7135 25.14V19.7C90.2602 19.6547 89.9428 19.5187 89.7615 19.292C89.5802 19.0427 89.4895 18.612 89.4895 18V14.532C89.4895 12.016 88.7075 10.1233 87.1435 8.854C85.6022 7.562 83.4148 6.916 80.5815 6.916C79.0628 6.916 77.6348 7.10867 76.2975 7.494C74.9828 7.85667 73.7248 8.42333 72.5235 9.194L74.3935 13.206C75.3455 12.5713 76.2522 12.0953 77.1135 11.778C77.9975 11.438 78.9382 11.268 79.9355 11.268C81.0235 11.268 81.8055 11.472 82.2815 11.88C82.7802 12.288 83.0295 12.9113 83.0295 13.75V14.294C82.5762 14.0673 82.0322 13.8973 81.3975 13.784C80.7855 13.6707 80.1282 13.614 79.4255 13.614C77.9295 13.614 76.5922 13.8747 75.4135 14.396C74.2575 14.9173 73.3508 15.6427 72.6935 16.572ZM82.7915 19.598C82.6328 19.802 82.4288 19.9947 82.1795 20.176C81.8848 20.38 81.5222 20.55 81.0915 20.686C80.6835 20.7993 80.2868 20.856 79.9015 20.856C79.4935 20.856 79.1308 20.788 78.8135 20.652C78.4962 20.4933 78.2468 20.2893 78.0655 20.04C77.8842 19.768 77.7935 19.4733 77.7935 19.156C77.7935 18.5667 78.0542 18.0793 78.5755 17.694C79.1195 17.3087 79.7768 17.116 80.5475 17.116C80.9102 17.116 81.3182 17.1613 81.7715 17.252C82.2475 17.3427 82.6668 17.456 83.0295 17.592V18.918C83.0295 19.1447 82.9502 19.3713 82.7915 19.598Z" fill="#413C3C"/>
<path d="M93.115 25.14V7.256H99.575V13.342H104.335V7.256H110.795V25.14H104.335V18.612H99.575V25.14H93.115Z" fill="#413C3C"/>
<path d="M114.199 7.256V25.14H120.115L125.725 16.164V25.14H132.185V7.256H126.303L120.659 16.538V7.256H114.199Z" fill="#413C3C"/>
<path d="M139.424 25.14V12.866H134.324V7.256H150.984V12.866H145.884V25.14H139.424Z" fill="#413C3C"/>
<path fill-rule="evenodd" clip-rule="evenodd" d="M157.603 24.766C158.827 25.242 160.221 25.48 161.785 25.48C163.235 25.48 164.539 25.276 165.695 24.868C166.851 24.4373 167.848 23.8593 168.687 23.134C169.548 22.4087 170.217 21.57 170.693 20.618L165.219 19.054C165.015 19.6207 164.595 20.0627 163.961 20.38C163.349 20.6973 162.691 20.856 161.989 20.856C161.49 20.856 161.003 20.7653 160.527 20.584C160.073 20.4027 159.688 20.1193 159.371 19.734C159.076 19.326 158.906 18.8047 158.861 18.17H171.407C171.452 17.898 171.486 17.592 171.509 17.252C171.554 16.8893 171.577 16.538 171.577 16.198C171.577 14.5433 171.203 13.0133 170.455 11.608C169.707 10.2027 168.607 9.06933 167.157 8.208C165.706 7.34667 163.915 6.916 161.785 6.916C159.654 6.916 157.863 7.358 156.413 8.242C154.962 9.10333 153.863 10.2593 153.115 11.71C152.367 13.138 151.993 14.7133 151.993 16.436C151.993 17.6373 152.208 18.782 152.639 19.87C153.069 20.958 153.693 21.9213 154.509 22.76C155.347 23.5987 156.379 24.2673 157.603 24.766ZM164.641 14.294H158.725C158.793 13.7047 158.951 13.206 159.201 12.798C159.473 12.39 159.813 12.0727 160.221 11.846C160.651 11.6193 161.139 11.506 161.683 11.506C162.227 11.506 162.703 11.6193 163.111 11.846C163.541 12.0727 163.881 12.39 164.131 12.798C164.403 13.206 164.573 13.7047 164.641 14.294Z" fill="#413C3C"/>
<path d="M172.745 25.48V19.768C173.267 19.7453 173.72 19.6433 174.105 19.462C174.491 19.2807 174.819 18.9747 175.091 18.544C175.386 18.0907 175.613 17.456 175.771 16.64C175.93 15.8013 176.043 14.7247 176.111 13.41L176.383 7.256H191.309V25.14H184.849V12.866H182.095L182.027 14.09C181.914 16.2887 181.653 18.1247 181.245 19.598C180.837 21.0713 180.259 22.2387 179.511 23.1C178.763 23.9387 177.834 24.5393 176.723 24.902C175.613 25.2647 174.287 25.4573 172.745 25.48Z" fill="#413C3C"/>
<path fill-rule="evenodd" clip-rule="evenodd" d="M201.177 7.256H194.717V25.14H205.189C206.594 25.14 207.773 24.868 208.725 24.324C209.699 23.78 210.436 23.0093 210.935 22.012C211.433 21.0147 211.683 19.8587 211.683 18.544C211.683 16.6627 211.082 15.1553 209.881 14.022C208.679 12.866 206.979 12.288 204.781 12.288H201.177V7.256ZM204.101 20.278H201.177V16.81H204.101C204.463 16.81 204.769 16.8893 205.019 17.048C205.268 17.184 205.449 17.3767 205.563 17.626C205.699 17.8753 205.767 18.1813 205.767 18.544C205.767 18.9067 205.699 19.224 205.563 19.496C205.449 19.7453 205.268 19.938 205.019 20.074C204.769 20.21 204.463 20.278 204.101 20.278Z" fill="#413C3C"/>
</g>
<defs>
<clipPath id="clip0_1_403">
<rect width="50" height="50" fill="white"/>
</clipPath>
</defs>
</svg>
